<?xml version="1.0" encoding="UTF-8" standalone="no"?>
<!-- Uploaded to: SVG Repo, www.svgrepo.com, Generator: SVG Repo Mixer Tools -->

<svg
   width="44"
   height="44"
   viewBox="0 0 44 44"
   version="1.1"
   id="svg1"
   sodipodi:docname="Step.svg"
   inkscape:version="1.3 (0e150ed6c4, 2023-07-21)"
   xmlns:inkscape="http://www.inkscape.org/namespaces/inkscape"
   xmlns:sodipodi="http://sodipodi.sourceforge.net/DTD/sodipodi-0.dtd"
   xmlns="http://www.w3.org/2000/svg"
   xmlns:svg="http://www.w3.org/2000/svg">
  <defs
     id="defs1" />
  <sodipodi:namedview
     id="namedview1"
     pagecolor="#ffffff"
     bordercolor="#000000"
     borderopacity="0.25"
     inkscape:showpageshadow="2"
     inkscape:pageopacity="0.0"
     inkscape:pagecheckerboard="0"
     inkscape:deskcolor="#d1d1d1"
     inkscape:zoom="3.3077606"
     inkscape:cx="5.7440675"
     inkscape:cy="-15.871765"
     inkscape:window-width="1920"
     inkscape:window-height="1017"
     inkscape:window-x="-8"
     inkscape:window-y="-8"
     inkscape:window-maximized="1"
     inkscape:current-layer="svg1" />
  <path
     fill="#000000"
     d="M 40.394204,17.176332 C 38.329329,8.995708 30.749737,2.6469435 22.342004,2.0159748 13.949099,1.1597875 5.3897719,6.1088023 1.9217409,13.794614 c -3.672327,7.593327 -1.95734298,17.3307 4.083984,23.217386 1.057859,0.736735 2.683609,3.410391 3.47889,1.267516 0.6724841,-0.9605 1.3449691,-1.921 2.0174531,-2.8815 C 5.8733809,31.592314 3.3394129,23.930612 5.5843969,17.518332 7.6193339,11.038067 14.232005,6.4213335 21.015551,6.731599 c 6.756405,0.092187 13.043013,5.052749 14.729997,11.590826 1.118906,4.008969 0.545656,8.450577 -1.55125,12.045577 -1.944109,-1.122516 -3.888233,-2.245031 -5.832342,-3.367531 1.101562,4.111109 2.20314,8.222217 3.304702,12.333326 C 35.777767,38.232235 39.888891,37.130657 44,36.029094 42.112782,34.939548 40.225579,33.850001 38.33836,32.76047 41.044266,28.105393 41.80375,22.373628 40.394204,17.176332 Z"
     id="path1"
     style="stroke-width:0.0997531" />
</svg>
